<svg width="51" height="51" viewBox="0 0 51 51" fill="none" xmlns="http://www.w3.org/2000/svg">
<circle cx="25.5" cy="25.5" r="25" fill="#FCFCFC" stroke="#F8F8F8"/>
<g clip-path="url(#clip0)">
<path d="M25.4998 20.5176L18.0102 26.692C18.0102 26.7007 18.008 26.7135 18.0036 26.731C17.9994 26.7483 17.9971 26.7609 17.9971 26.7699V33.022C17.9971 33.2478 18.0796 33.4434 18.2446 33.6081C18.4096 33.773 18.6049 33.8559 18.8307 33.8559H23.8323V28.854H27.1672V33.8561H32.1688C32.3945 33.8561 32.5901 33.7733 32.7549 33.6081C32.9199 33.4436 33.0027 33.2478 33.0027 33.022V26.7699C33.0027 26.7352 32.998 26.709 32.9896 26.692L25.4998 20.5176Z" fill="#61ADE5"/>
<path d="M35.8551 25.2851L33.0027 22.9144V17.6C33.0027 17.4785 32.9637 17.3786 32.8853 17.3004C32.8075 17.2223 32.7076 17.1832 32.5859 17.1832H30.085C29.9634 17.1832 29.8635 17.2223 29.7853 17.3004C29.7072 17.3786 29.6682 17.4785 29.6682 17.6V20.1399L26.49 17.4826C26.2125 17.2569 25.8824 17.144 25.5003 17.144C25.1182 17.144 24.7882 17.2569 24.5104 17.4826L15.1447 25.2851C15.0579 25.3544 15.0103 25.4478 15.0015 25.565C14.9927 25.6822 15.023 25.7845 15.0926 25.8713L15.9002 26.8352C15.9697 26.9133 16.0608 26.9611 16.1737 26.9785C16.278 26.9873 16.3822 26.9568 16.4865 26.8874L25.5 19.3714L34.5137 26.8873C34.5833 26.9479 34.6743 26.9782 34.7872 26.9782H34.8264C34.9391 26.961 35.03 26.9129 35.0999 26.835L35.9076 25.8712C35.977 25.7843 36.0075 25.6821 35.9984 25.5648C35.9895 25.4479 35.9418 25.3546 35.8551 25.2851Z" fill="#61ADE5"/>
</g>
<defs>
<clipPath id="clip0">
<rect x="15" y="15" width="21" height="21" rx="6" fill="white"/>
</clipPath>
</defs>
</svg>
