<svg width="67" height="67" viewBox="0 0 67 67" fill="none" xmlns="http://www.w3.org/2000/svg">
<g filter="url(#filter0_d)">
<path d="M15 31.5C15 21.2827 23.2827 13 33.5 13C43.7173 13 52 21.2827 52 31.5C52 41.7173 43.7173 50 33.5 50C23.2827 50 15 41.7173 15 31.5Z" fill="url(#paint0_linear)"/>
</g>
<path d="M36.6085 27.9205V25.1968L41 29.589L36.6085 33.9805V31.2234C31.434 31.6134 27.2536 34.3082 26.2371 37.8031C26.0819 37.2701 26 36.718 26 36.1526C26 31.8834 30.6436 28.3699 36.6085 27.9205Z" fill="white"/>
<defs>
<filter id="filter0_d" x="0" y="0" width="67" height="67" filterUnits="userSpaceOnUse" color-interpolation-filters="sRGB">
<feFlood flood-opacity="0" result="BackgroundImageFix"/>
<feColorMatrix in="SourceAlpha" type="matrix" values="0 0 0 0 0 0 0 0 0 0 0 0 0 0 0 0 0 0 127 0"/>
<feOffset dy="2"/>
<feGaussianBlur stdDeviation="7.5"/>
<feColorMatrix type="matrix" values="0 0 0 0 0.380392 0 0 0 0 0.678431 0 0 0 0 0.898039 0 0 0 0.2 0"/>
<feBlend mode="normal" in2="BackgroundImageFix" result="effect1_dropShadow"/>
<feBlend mode="normal" in="SourceGraphic" in2="effect1_dropShadow" result="shape"/>
</filter>
<linearGradient id="paint0_linear" x1="15" y1="50" x2="55.1992" y2="46.1166" gradientUnits="userSpaceOnUse">
<stop stop-color="#61ADE6"/>
<stop offset="1" stop-color="#8FCBF6"/>
</linearGradient>
</defs>
</svg>
