<svg width="37" height="37" viewBox="0 0 37 37" fill="none" xmlns="http://www.w3.org/2000/svg">
<circle cx="18.5" cy="18.5" r="18" fill="#FCFCFC" stroke="#F8F8F8"/>
<g clip-path="url(#clip0)">
<path d="M13.4922 15.2188C13.4922 13.5819 14.8241 12.25 16.4609 12.25H22.1691C21.9634 11.5306 21.3078 11 20.5234 11H13.3359C12.3878 11 11.6172 11.7706 11.6172 12.7188V22.4062C11.6172 23.3544 12.3878 24.125 13.3359 24.125H13.4922V15.2188Z" fill="#61ADE5"/>
<path d="M23.6562 13.5003H16.4688C15.5206 13.5003 14.75 14.2709 14.75 15.2191V24.2816C14.75 25.2297 15.5206 26.0003 16.4688 26.0003H23.6562C24.6044 26.0003 25.375 25.2297 25.375 24.2816V15.2191C25.375 14.2709 24.6044 13.5003 23.6562 13.5003ZM22.4062 24.1253H17.7188C17.46 24.1253 17.25 23.9153 17.25 23.6566C17.25 23.3978 17.46 23.1878 17.7188 23.1878H22.4062C22.665 23.1878 22.875 23.3978 22.875 23.6566C22.875 23.9153 22.665 24.1253 22.4062 24.1253ZM22.4062 21.6253H17.7188C17.46 21.6253 17.25 21.4153 17.25 21.1566C17.25 20.8978 17.46 20.6878 17.7188 20.6878H22.4062C22.665 20.6878 22.875 20.8978 22.875 21.1566C22.875 21.4153 22.665 21.6253 22.4062 21.6253ZM22.4062 19.4378H17.7188C17.46 19.4378 17.25 19.2278 17.25 18.9691C17.25 18.7103 17.46 18.5003 17.7188 18.5003H22.4062C22.665 18.5003 22.875 18.7103 22.875 18.9691C22.875 19.2278 22.665 19.4378 22.4062 19.4378ZM22.4062 16.9378H17.7188C17.46 16.9378 17.25 16.7278 17.25 16.4691C17.25 16.2103 17.46 16.0003 17.7188 16.0003H22.4062C22.665 16.0003 22.875 16.2103 22.875 16.4691C22.875 16.7278 22.665 16.9378 22.4062 16.9378Z" fill="#61ADE5"/>
</g>
<defs>
<clipPath id="clip0">
<rect width="15" height="15" fill="white" transform="translate(11 11)"/>
</clipPath>
</defs>
</svg>
