<svg width="37" height="37" viewBox="0 0 37 37" fill="none" xmlns="http://www.w3.org/2000/svg">
<circle cx="18.5" cy="18.5" r="18" fill="#FCFCFC" stroke="#F8F8F8"/>
<path d="M14.1055 26H22.8945C23.6215 26 24.2129 25.4086 24.2129 24.6816V15.3945H21.1367C20.4097 15.3945 19.8184 14.8031 19.8184 14.0762V11H14.1055C13.3785 11 12.7871 11.5914 12.7871 12.3184V24.6816C12.7871 25.4086 13.3785 26 14.1055 26ZM15.8633 17.1816H21.1367C21.3796 17.1816 21.5762 17.3782 21.5762 17.6211C21.5762 17.864 21.3796 18.0605 21.1367 18.0605H15.8633C15.6204 18.0605 15.4238 17.864 15.4238 17.6211C15.4238 17.3782 15.6204 17.1816 15.8633 17.1816ZM15.8633 18.9395H21.1367C21.3796 18.9395 21.5762 19.136 21.5762 19.3789C21.5762 19.6218 21.3796 19.8184 21.1367 19.8184H15.8633C15.6204 19.8184 15.4238 19.6218 15.4238 19.3789C15.4238 19.136 15.6204 18.9395 15.8633 18.9395ZM15.8633 20.6973H21.1367C21.3796 20.6973 21.5762 20.8938 21.5762 21.1367C21.5762 21.3796 21.3796 21.5762 21.1367 21.5762H15.8633C15.6204 21.5762 15.4238 21.3796 15.4238 21.1367C15.4238 20.8938 15.6204 20.6973 15.8633 20.6973ZM15.8633 22.4551H19.3789C19.6218 22.4551 19.8184 22.6516 19.8184 22.8945C19.8184 23.1374 19.6218 23.334 19.3789 23.334H15.8633C15.6204 23.334 15.4238 23.1374 15.4238 22.8945C15.4238 22.6516 15.6204 22.4551 15.8633 22.4551Z" fill="#61ADE5"/>
<path d="M21.1367 14.5157H23.9554L20.6973 11.2575V14.0762C20.6973 14.3187 20.8943 14.5157 21.1367 14.5157Z" fill="#61ADE5"/>
</svg>
