<svg width="37" height="37" viewBox="0 0 37 37" fill="none" xmlns="http://www.w3.org/2000/svg">
<circle cx="18.5" cy="18.5" r="18" fill="#FCFCFC" stroke="#F8F8F8"/>
<g clip-path="url(#clip0)">
<path d="M18.5106 11H18.4892C15.8988 11 13.7913 13.1067 13.7913 15.6962C13.7913 17.3936 14.5643 19.6338 16.0889 22.3546C17.2192 24.3717 18.3654 25.9166 18.3769 25.9319C18.4088 25.9748 18.459 26 18.5123 26C18.5138 26 18.5154 26 18.5169 26C18.5719 25.9984 18.6226 25.9703 18.6531 25.9245C18.6644 25.9074 19.8024 24.1889 20.925 22.087C22.4403 19.25 23.2086 17.0998 23.2086 15.6962C23.2085 13.1067 21.101 11 18.5106 11ZM20.6791 15.811C20.6791 17.0126 19.7016 17.9902 18.4999 17.9902C17.2983 17.9902 16.3207 17.0126 16.3207 15.811C16.3207 14.6094 17.2983 13.6318 18.4999 13.6318C19.7016 13.6318 20.6791 14.6094 20.6791 15.811Z" fill="#61ADE5"/>
</g>
<defs>
<clipPath id="clip0">
<rect width="15" height="15" fill="white" transform="translate(11 11)"/>
</clipPath>
</defs>
</svg>
