<svg width="37" height="37" viewBox="0 0 37 37" fill="none" xmlns="http://www.w3.org/2000/svg">
<circle cx="18.5" cy="18.5" r="18" fill="#FCFCFC" stroke="#F8F8F8"/>
<g clip-path="url(#clip0)">
<path d="M25.8679 13.9802L21.3187 18.5001L25.8679 23.0199C25.9502 22.8481 26 22.658 26 22.4551V14.545C26 14.342 25.9502 14.152 25.8679 13.9802Z" fill="#61ADE5"/>
<path d="M24.6815 13.2266H12.3182C12.1152 13.2266 11.9252 13.2765 11.7534 13.3587L17.5677 19.1438C18.0818 19.6579 18.9178 19.6579 19.4319 19.1438L25.2463 13.3587C25.0744 13.2765 24.8844 13.2266 24.6815 13.2266Z" fill="#61ADE5"/>
<path d="M11.1321 13.9802C11.0499 14.152 11 14.342 11 14.545V22.4551C11 22.6581 11.0499 22.8481 11.1321 23.0199L15.6813 18.5001L11.1321 13.9802Z" fill="#61ADE5"/>
<path d="M20.6971 19.1215L20.0533 19.7652C19.1967 20.6218 17.8029 20.6218 16.9463 19.7652L16.3025 19.1215L11.7534 23.6414C11.9252 23.7236 12.1152 23.7735 12.3182 23.7735H24.6815C24.8844 23.7735 25.0744 23.7236 25.2463 23.6414L20.6971 19.1215Z" fill="#61ADE5"/>
</g>
<defs>
<clipPath id="clip0">
<rect width="15" height="15" fill="white" transform="translate(11 11)"/>
</clipPath>
</defs>
</svg>
