<svg width="67" height="67" viewBox="0 0 67 67" fill="none" xmlns="http://www.w3.org/2000/svg">
<g filter="url(#filter0_d)">
<path d="M15 31.5C15 21.2827 23.2827 13 33.5 13C43.7173 13 52 21.2827 52 31.5C52 41.7173 43.7173 50 33.5 50C23.2827 50 15 41.7173 15 31.5Z" fill="url(#paint0_linear)"/>
</g>
<g clip-path="url(#clip0)">
<path d="M40.375 30.875H34.125V24.625C34.125 24.2798 33.8452 24 33.5 24C33.1548 24 32.875 24.2798 32.875 24.625V30.875H26.625C26.2798 30.875 26 31.1548 26 31.5C26 31.8452 26.2798 32.125 26.625 32.125H32.875V38.375C32.875 38.7202 33.1548 39 33.5 39C33.8452 39 34.125 38.7202 34.125 38.375V32.125H40.375C40.7202 32.125 41 31.8452 41 31.5C41 31.1548 40.7201 30.875 40.375 30.875Z" fill="white"/>
</g>
<defs>
<filter id="filter0_d" x="0" y="0" width="67" height="67" filterUnits="userSpaceOnUse" color-interpolation-filters="sRGB">
<feFlood flood-opacity="0" result="BackgroundImageFix"/>
<feColorMatrix in="SourceAlpha" type="matrix" values="0 0 0 0 0 0 0 0 0 0 0 0 0 0 0 0 0 0 127 0"/>
<feOffset dy="2"/>
<feGaussianBlur stdDeviation="7.5"/>
<feColorMatrix type="matrix" values="0 0 0 0 0.380392 0 0 0 0 0.678431 0 0 0 0 0.898039 0 0 0 0.2 0"/>
<feBlend mode="normal" in2="BackgroundImageFix" result="effect1_dropShadow"/>
<feBlend mode="normal" in="SourceGraphic" in2="effect1_dropShadow" result="shape"/>
</filter>
<linearGradient id="paint0_linear" x1="15" y1="50" x2="55.1992" y2="46.1166" gradientUnits="userSpaceOnUse">
<stop stop-color="#61ADE6"/>
<stop offset="1" stop-color="#8FCBF6"/>
</linearGradient>
<clipPath id="clip0">
<rect width="15" height="15" fill="white" transform="translate(26 24)"/>
</clipPath>
</defs>
</svg>
