<svg width="28" height="28" viewBox="0 0 28 28" fill="none" xmlns="http://www.w3.org/2000/svg">
<circle cx="14" cy="14" r="14" fill="#FAFAFA"/>
<path d="M12.6147 15.9971C12.6245 15.416 12.6904 14.957 12.8125 14.6201C12.9346 14.2832 13.1836 13.9097 13.5596 13.4995L14.519 12.5107C14.9292 12.0469 15.1343 11.5488 15.1343 11.0166C15.1343 10.5039 15 10.1035 14.7314 9.81543C14.4629 9.52246 14.0723 9.37598 13.5596 9.37598C13.0615 9.37598 12.6611 9.50781 12.3584 9.77148C12.0557 10.0352 11.9043 10.3892 11.9043 10.8335H10.5493C10.5591 10.0425 10.8398 9.40527 11.3916 8.92188C11.9482 8.43359 12.6709 8.18945 13.5596 8.18945C14.4824 8.18945 15.2002 8.43848 15.7129 8.93652C16.2305 9.42969 16.4893 10.1084 16.4893 10.9727C16.4893 11.8271 16.0938 12.6694 15.3027 13.4995L14.5044 14.2905C14.1479 14.686 13.9697 15.2549 13.9697 15.9971H12.6147ZM12.5562 18.3188C12.5562 18.0991 12.6221 17.916 12.7539 17.7695C12.8906 17.6182 13.0908 17.5425 13.3545 17.5425C13.6182 17.5425 13.8184 17.6182 13.9551 17.7695C14.0918 17.916 14.1602 18.0991 14.1602 18.3188C14.1602 18.5386 14.0918 18.7217 13.9551 18.8682C13.8184 19.0098 13.6182 19.0806 13.3545 19.0806C13.0908 19.0806 12.8906 19.0098 12.7539 18.8682C12.6221 18.7217 12.5562 18.5386 12.5562 18.3188Z" fill="#C8CBD0"/>
</svg>
