<svg width="51" height="51" viewBox="0 0 51 51" fill="none" xmlns="http://www.w3.org/2000/svg">
<circle cx="25.5" cy="25.5" r="25" fill="#FCFCFC" stroke="#F8F8F8"/>
<path d="M26.6192 25.0666C26.8612 24.9428 27.1307 24.8774 27.4103 24.8774C27.8737 24.8774 28.3093 25.0573 28.6377 25.384L29.3447 24.6771C31.0941 25.2904 33.1176 24.8978 34.5161 23.4993C35.6929 22.3225 36.157 20.7034 35.9093 19.1773C35.882 19.0092 35.763 18.8706 35.601 18.8183C35.439 18.7659 35.2612 18.8084 35.1408 18.9289L34.0912 19.9786C33.2363 20.8334 31.8503 20.8334 30.9955 19.9786C30.1406 19.1237 30.1406 17.7377 30.9955 16.8829L32.0452 15.8332C32.1656 15.7128 32.2085 15.535 32.1561 15.3729C32.1037 15.2108 31.9649 15.0921 31.7967 15.0648C30.2706 14.817 28.6515 15.2811 27.4748 16.4579C26.0554 17.8773 25.6734 19.9399 26.3262 21.707L24.793 23.2402L26.6192 25.0666Z" fill="#61ADE5"/>
<path d="M23.8253 27.8449L22.0067 26.0263L15.6475 32.3854C14.8206 33.2123 14.8206 34.5529 15.6475 35.3798C16.4744 36.2067 17.815 36.2067 18.6419 35.3798L24.1239 29.8979C23.571 29.342 23.4713 28.5028 23.8253 27.8449Z" fill="#61ADE5"/>
<path d="M27.8812 26.1472C27.7512 26.0171 27.5807 25.9521 27.4102 25.9521C27.2398 25.9521 27.0693 26.0171 26.9393 26.1472L26.5597 26.5268L19.7973 19.7645L20.1134 19.4484C20.4014 19.1605 20.3657 18.6828 20.0374 18.4411L17.2784 16.4092C17.0132 16.2139 16.6453 16.2417 16.4125 16.4745L15.241 17.646C15.0081 17.8789 14.9804 18.2469 15.1756 18.512L17.2075 21.271C17.4492 21.5992 17.9266 21.6353 18.2148 21.347L18.5309 21.0309L25.2932 27.7932L24.8868 28.1995C24.6267 28.4597 24.6267 28.8813 24.8868 29.1415L31.1253 35.3799C31.9521 36.2067 33.2927 36.2067 34.1196 35.3799C34.9465 34.553 34.9465 33.2124 34.1196 32.3855L27.8812 26.1472Z" fill="#61ADE5"/>
</svg>
