<svg width="15" height="15" viewBox="0 0 15 15" fill="none" xmlns="http://www.w3.org/2000/svg">
<g clip-path="url(#clip0)">
<path d="M14.8675 2.98022L10.3184 7.50012L14.8675 12.02C14.9498 11.8481 14.9997 11.6581 14.9997 11.4552V3.54504C14.9997 3.3421 14.9498 3.15211 14.8675 2.98022Z" fill="#61ADE5"/>
<path d="M13.682 2.22656H1.31872C1.11578 2.22656 0.925791 2.27646 0.753906 2.35869L6.56825 8.14375C7.08235 8.65786 7.91837 8.65786 8.43247 8.14375L14.2468 2.35869C14.0749 2.27646 13.8849 2.22656 13.682 2.22656Z" fill="#61ADE5"/>
<path d="M0.132129 2.98022C0.0498926 3.15211 0 3.3421 0 3.54504V11.4552C0 11.6581 0.0498926 11.8482 0.132129 12.02L4.68132 7.50012L0.132129 2.98022Z" fill="#61ADE5"/>
<path d="M9.69763 8.12158L9.05389 8.76532C8.19728 9.62193 6.80342 9.62193 5.94681 8.76532L5.3031 8.12158L0.753906 12.6415C0.925791 12.7237 1.11578 12.7736 1.31872 12.7736H13.682C13.8849 12.7736 14.0749 12.7237 14.2468 12.6415L9.69763 8.12158Z" fill="#61ADE5"/>
</g>
<defs>
<clipPath id="clip0">
<rect width="15" height="15" fill="white"/>
</clipPath>
</defs>
</svg>
