<svg width="46" height="46" viewBox="0 0 46 46" fill="none" xmlns="http://www.w3.org/2000/svg">
<circle cx="23" cy="23" r="22.5" fill="#FDFDFD" stroke="#F0F0F0"/>
<g clip-path="url(#clip0)">
<path d="M30.3125 16.25H15.6875C14.757 16.25 14 17.0069 14 17.9375V28.0625C14 28.9931 14.757 29.75 15.6875 29.75H30.3125C31.243 29.75 32 28.9931 32 28.0625V17.9375C32 17.0069 31.243 16.25 30.3125 16.25ZM30.3125 17.375C30.3889 17.375 30.4616 17.3908 30.5281 17.4185L23 23.9432L15.4719 17.4185C15.5383 17.3909 15.611 17.375 15.6875 17.375H30.3125ZM30.3125 28.625H15.6875C15.3772 28.625 15.125 28.3729 15.125 28.0625V18.6071L22.6314 25.1127C22.7374 25.2044 22.8687 25.25 23 25.25C23.1313 25.25 23.2626 25.2044 23.3686 25.1127L30.875 18.6071V28.0625C30.875 28.3729 30.6228 28.625 30.3125 28.625Z" fill="#CCCDCD"/>
</g>
<defs>
<clipPath id="clip0">
<rect width="18" height="18" fill="white" transform="translate(14 14)"/>
</clipPath>
</defs>
</svg>
