<svg width="57" height="57" viewBox="0 0 57 57" fill="none" xmlns="http://www.w3.org/2000/svg">
<g filter="url(#filter0_d)">
<circle cx="28.5" cy="25.5" r="18.5" fill="white"/>
</g>
<path d="M28.5003 25.3141C30.3905 25.3141 31.9228 23.453 31.9228 21.1571C31.9228 18.8612 31.4197 17 28.5003 17C25.581 17 25.0778 18.8612 25.0778 21.1571C25.0778 23.453 26.6101 25.3141 28.5003 25.3141Z" fill="#61ADE5"/>
<path d="M22.0357 31.6615C22.0351 31.5215 22.0345 31.6221 22.0357 31.6615V31.6615Z" fill="#61ADE5"/>
<path d="M34.9642 31.7708C34.9661 31.7325 34.9649 31.5049 34.9642 31.7708V31.7708Z" fill="#61ADE5"/>
<path d="M34.9571 31.4936C34.8937 27.4941 34.3714 26.3545 30.3743 25.6331C30.3743 25.6331 29.8116 26.3501 28.5002 26.3501C27.1888 26.3501 26.626 25.6331 26.626 25.6331C22.6725 26.3466 22.1184 27.4693 22.0456 31.3637C22.0396 31.6817 22.0368 31.6984 22.0358 31.6615C22.036 31.7306 22.0363 31.8586 22.0363 32.0817C22.0363 32.0817 22.9879 34 28.5002 34C34.0124 34 34.9641 32.0817 34.9641 32.0817C34.9641 31.9383 34.9642 31.8387 34.9643 31.7708C34.9632 31.7937 34.9611 31.7494 34.9571 31.4936Z" fill="#61ADE5"/>
<defs>
<filter id="filter0_d" x="0" y="0" width="57" height="57" filterUnits="userSpaceOnUse" color-interpolation-filters="sRGB">
<feFlood flood-opacity="0" result="BackgroundImageFix"/>
<feColorMatrix in="SourceAlpha" type="matrix" values="0 0 0 0 0 0 0 0 0 0 0 0 0 0 0 0 0 0 127 0"/>
<feOffset dy="3"/>
<feGaussianBlur stdDeviation="5"/>
<feColorMatrix type="matrix" values="0 0 0 0 0 0 0 0 0 0 0 0 0 0 0 0 0 0 0.02 0"/>
<feBlend mode="normal" in2="BackgroundImageFix" result="effect1_dropShadow"/>
<feBlend mode="normal" in="SourceGraphic" in2="effect1_dropShadow" result="shape"/>
</filter>
</defs>
</svg>
