<svg width="37" height="37" viewBox="0 0 37 37" fill="none" xmlns="http://www.w3.org/2000/svg">
<circle cx="18.5" cy="18.5" r="18" fill="white" stroke="#F8F8F8"/>
<g clip-path="url(#clip0)">
<path d="M13.344 19.1241C12.9098 19.9776 13.4028 20.3856 14.5276 21.0826C15.4839 21.6733 16.8049 21.8894 17.6535 21.9758C17.3057 22.3101 18.8995 20.7773 14.3095 25.1923C13.3362 26.1252 14.9031 27.6219 15.8756 26.7089L18.5085 24.1695C19.5164 25.1392 20.4826 26.0685 21.1414 26.7124C22.1146 27.629 23.6807 26.145 22.7181 25.1959C22.6459 25.1272 19.1502 21.7739 19.3634 21.9793C20.2227 21.8929 21.5239 21.6641 22.4688 21.0861L22.4681 21.0854C23.5929 20.3849 24.0859 19.9776 23.6581 19.1241C23.3995 18.6396 22.7025 18.2344 21.7746 18.9349C21.7746 18.9349 20.5216 19.8947 18.5007 19.8947C16.4791 19.8947 15.2268 18.9349 15.2268 18.9349C14.2996 18.2309 13.5997 18.6396 13.344 19.1241Z" fill="#EE810D"/>
<path d="M18.4992 18.6006C20.9627 18.6006 22.9744 16.6753 22.9744 14.3053C22.9744 11.9253 20.9627 10 18.4992 10C16.0349 10 14.0232 11.9253 14.0232 14.3053C14.0232 16.6753 16.0349 18.6006 18.4992 18.6006ZM18.4992 12.181C19.7097 12.181 20.6971 13.1308 20.6971 14.3053C20.6971 15.4698 19.7097 16.4196 18.4992 16.4196C17.2886 16.4196 16.3012 15.4698 16.3012 14.3053C16.3005 13.1301 17.2879 12.181 18.4992 12.181Z" fill="#EE810D"/>
</g>
<defs>
<clipPath id="clip0">
<rect width="17" height="17" fill="white" transform="translate(10 10)"/>
</clipPath>
</defs>
</svg>
