<svg width="25" height="25" viewBox="0 0 25 25" fill="none" xmlns="http://www.w3.org/2000/svg">
<g clip-path="url(#clip0)">
<path d="M21.784 1.2573L22.6997 2.17289C24.3761 3.84933 24.3761 6.56735 22.6997 8.24379C22.6997 8.24379 22.6997 8.24379 22.6997 8.24384L10.9995 19.944C9.81406 21.1295 7.89211 21.1295 6.70668 19.944L6.09627 19.3336C4.96525 18.1262 4.96525 16.2483 6.09627 15.0408L14.735 6.40216C14.9348 6.19527 15.2645 6.18956 15.4714 6.38937C15.6783 6.58922 15.684 6.91892 15.4842 7.12585C15.48 7.1302 15.4758 7.13445 15.4714 7.13865L6.83276 15.7773C6.09041 16.5707 6.09041 17.8038 6.83276 18.5971L7.44317 19.2076C8.22175 19.9862 9.48413 19.9863 10.2628 19.2078C10.2628 19.2077 10.2629 19.2076 10.263 19.2076L21.9633 7.5074C23.1894 6.21998 23.1894 4.1968 21.9633 2.90942L21.0476 1.99378C19.7777 0.724571 17.7195 0.724571 16.4496 1.99378L3.40252 15.0409C1.64224 16.8018 1.64224 19.6561 3.40252 21.417L4.62232 22.6379C6.38324 24.3982 9.23754 24.3982 10.9985 22.6379L20.984 12.6523C21.1839 12.4454 21.5136 12.4396 21.7205 12.6395C21.9274 12.8393 21.9332 13.169 21.7333 13.376C21.7291 13.3803 21.7249 13.3846 21.7205 13.3888L11.736 23.3743C9.56855 25.5418 6.05443 25.5418 3.88696 23.3744C3.88691 23.3744 3.88691 23.3743 3.88691 23.3743L2.66604 22.1535C0.498566 19.986 0.498516 16.4719 2.66594 14.3044C2.66599 14.3044 2.66599 14.3044 2.66604 14.3044L15.7131 1.2573C17.3895 -0.419149 20.1076 -0.419199 21.784 1.2573C21.784 1.25725 21.784 1.25725 21.784 1.2573Z" fill="#CFD8DC"/>
<path d="M1.03994 18.2294C1.03671 19.7023 1.62212 21.1154 2.66599 22.1545L3.88584 23.3743C6.05326 25.5418 9.56738 25.5418 11.7348 23.3744L11.7349 23.3743L21.7205 13.3887C21.9274 13.1888 21.9332 12.8591 21.7333 12.6522C21.5335 12.4453 21.2038 12.4395 20.9968 12.6394C20.9925 12.6436 20.9882 12.6478 20.984 12.6522L10.9995 22.6378C9.23857 24.3981 6.38427 24.3981 4.62335 22.6378L3.40248 21.4169C1.64219 19.656 1.64219 16.8017 3.40248 15.0408L16.4496 1.99368C17.7195 0.724464 19.7777 0.724464 21.0476 1.99368L21.9632 2.90932C23.1894 4.19675 23.1894 6.21993 21.9632 7.50731L10.263 19.2076C9.48447 19.9863 8.22209 19.9864 7.44342 19.2078C7.44337 19.2077 7.44327 19.2076 7.44322 19.2076L6.83281 18.5972C6.09046 17.8038 6.09046 16.5707 6.83281 15.7773L15.4715 7.13865C15.6784 6.93879 15.6841 6.6091 15.4843 6.40216C15.2844 6.19527 14.9547 6.18956 14.7478 6.38937C14.7434 6.39357 14.7392 6.39781 14.735 6.40216L6.09628 15.0408C4.96525 16.2482 4.96525 18.1262 6.09628 19.3336L6.70669 19.944C7.89211 21.1294 9.81407 21.1294 10.9995 19.944L22.6997 8.2438C24.3761 6.56735 24.3761 3.84933 22.6997 2.17288C22.6997 2.17288 22.6997 2.17288 22.6997 2.17283L21.7841 1.25719C20.1076 -0.41926 17.3896 -0.41926 15.7131 1.25714C15.7131 1.25714 15.7131 1.25714 15.7131 1.25719L2.66599 14.3043C1.62212 15.3434 1.03671 16.7565 1.03994 18.2294Z" fill="#273142"/>
</g>
<defs>
<clipPath id="clip0">
<rect width="25" height="25" fill="white" transform="matrix(1.19249e-08 -1 -1 -1.19249e-08 25 24.9999)"/>
</clipPath>
</defs>
</svg>
