<svg width="37" height="37" viewBox="0 0 37 37" fill="none" xmlns="http://www.w3.org/2000/svg">
<circle cx="18.5" cy="18.5" r="18" fill="white" stroke="#4B76A8"/>
<g clip-path="url(#clip0)">
<path d="M24.1065 19.2281C23.8316 18.881 23.9103 18.7266 24.1065 18.4164C24.11 18.4128 26.3788 15.2778 26.6125 14.2145L26.614 14.2138C26.7301 13.8264 26.614 13.5416 26.0522 13.5416H24.1936C23.7204 13.5416 23.5022 13.786 23.3854 14.0594C23.3854 14.0594 22.439 16.3247 21.1003 17.793C20.6682 18.2173 20.4685 18.3533 20.2326 18.3533C20.1164 18.3533 19.9358 18.2173 19.9358 17.8299V14.2138C19.9358 13.7492 19.8033 13.5416 19.4116 13.5416H16.489C16.1922 13.5416 16.0159 13.7584 16.0159 13.9603C16.0159 14.4008 16.6852 14.5021 16.7547 15.7417V18.4313C16.7547 19.0206 16.6477 19.129 16.4104 19.129C15.7786 19.129 14.245 16.8545 13.3362 14.2514C13.1528 13.7463 12.9736 13.5423 12.4969 13.5423H10.6375C10.107 13.5423 10 13.7867 10 14.0601C10 14.5432 10.6318 16.9452 12.9382 20.1185C14.4752 22.2846 16.6399 23.4583 18.6091 23.4583C19.7927 23.4583 19.9372 23.1976 19.9372 22.7493C19.9372 20.6795 19.8302 20.484 20.4231 20.484C20.698 20.484 21.1711 20.62 22.2761 21.6648C23.5391 22.9037 23.7466 23.4583 24.4535 23.4583H26.3122C26.842 23.4583 27.1105 23.1976 26.9561 22.6834C26.6026 21.6018 24.2141 19.3769 24.1065 19.2281Z" fill="#4B76A8"/>
</g>
<defs>
<clipPath id="clip0">
<rect width="17" height="17" fill="white" transform="translate(10 10)"/>
</clipPath>
</defs>
</svg>
