<svg width="26" height="26" viewBox="0 0 26 26" fill="none" xmlns="http://www.w3.org/2000/svg">
<circle cx="13" cy="13" r="12.5" fill="#FCFCFC" stroke="#F8F8F8"/>
<path d="M9.80335 9.43297L14.5872 8.12719L14.3338 7.61512C14.1681 7.28227 13.7638 7.14482 13.431 7.31057L9.14844 9.43297H9.80335Z" fill="#61ADE5"/>
<path d="M16.0738 8.16504C16.0145 8.16504 15.9552 8.17312 15.8959 8.1893L14.7721 8.49654L11.3398 9.43309H15.2356H16.9336L16.7233 8.66229C16.6425 8.36178 16.3703 8.16504 16.0738 8.16504Z" fill="#61ADE5"/>
<path d="M17.6349 9.90479H17.4813H17.2724H17.0636H15.4694H9.61157H8.84346H8.19663H8.0767H7.67513C7.46221 9.90479 7.27221 10.0032 7.14823 10.1581C7.09163 10.2295 7.04851 10.3117 7.02426 10.402C7.00943 10.4586 7 10.5179 7 10.5786V10.6594V11.4275V18.0858C7 18.4577 7.30185 18.7596 7.67378 18.7596H17.6336C18.0055 18.7596 18.3074 18.4577 18.3074 18.0858V16.206H14.3092C13.6771 16.206 13.1637 15.6925 13.1637 15.0605V14.4434V14.2345V14.0256V13.5621C13.1637 13.2521 13.2877 12.9705 13.4885 12.7643C13.6664 12.581 13.9049 12.4571 14.1717 12.4261C14.2162 12.4207 14.262 12.418 14.3078 12.418H17.7468H17.9556H18.1645H18.3074V10.5786C18.3087 10.2066 18.0069 9.90479 17.6349 9.90479Z" fill="#61ADE5"/>
<path d="M18.7797 13.0623C18.7123 13.0003 18.6328 12.9531 18.5439 12.9221C18.4752 12.8992 18.4024 12.8857 18.3256 12.8857H18.3081H18.2946H18.0857H17.3325H14.3085C13.9366 12.8857 13.6348 13.1876 13.6348 13.5595V13.895V14.1039V14.3128V15.0593C13.6348 15.4313 13.9366 15.7331 14.3085 15.7331H18.3081H18.3256C18.4024 15.7331 18.4752 15.7196 18.5439 15.6967C18.6328 15.6671 18.7123 15.6186 18.7797 15.5566C18.9145 15.434 18.9994 15.2561 18.9994 15.0594V13.5595C18.9994 13.3628 18.9145 13.1849 18.7797 13.0623ZM15.7154 14.4435C15.7154 14.6295 15.5645 14.7804 15.3785 14.7804H15.1548C14.9688 14.7804 14.8179 14.6295 14.8179 14.4435V14.2198C14.8179 14.112 14.8678 14.0163 14.9473 13.9557C15.0052 13.9112 15.0767 13.8829 15.1548 13.8829H15.2114H15.3785C15.5645 13.8829 15.7154 14.0338 15.7154 14.2198V14.4435Z" fill="#61ADE5"/>
</svg>
