<svg width="44" height="44" viewBox="0 0 44 44" fill="none" xmlns="http://www.w3.org/2000/svg">
<circle cx="22" cy="22" r="21.5" fill="white" stroke="#FFCC00" stroke-dasharray="3 3"/>
<g clip-path="url(#clip0)">
<path d="M22.4731 12.7782L25.0171 18.7995L31.5301 19.359C31.9818 19.398 32.1656 19.9616 31.8227 20.2583L26.8825 24.5384L28.3629 30.9056C28.4656 31.3481 27.9861 31.6961 27.598 31.461L22.0008 28.0854L16.4036 31.461C16.0145 31.6951 15.536 31.3471 15.6387 30.9056L17.1191 24.5384L12.1779 20.2573C11.835 19.9606 12.0177 19.397 12.4705 19.3579L18.9835 18.7984L21.5275 12.7782C21.7041 12.3593 22.2965 12.3593 22.4731 12.7782Z" fill="#FFCC00"/>
</g>
<defs>
<clipPath id="clip0">
<rect width="20" height="20" fill="white" transform="translate(12 12)"/>
</clipPath>
</defs>
</svg>
