<svg width="25" height="25" viewBox="0 0 25 25" fill="none" xmlns="http://www.w3.org/2000/svg">
<circle cx="12.5" cy="12.5" r="12.5" fill="#FAFAFA"/>
<path d="M11.5839 7.664H13.4223V7.97334H14.0863V7.6207C14.0863 7.27846 13.8081 7 13.466 7H11.5403C11.1982 7 10.9199 7.27846 10.9199 7.6207V7.97334H11.5839V7.664Z" fill="#E56868"/>
<path d="M15.619 10.604H9.38619C9.2154 10.604 9.08096 10.7497 9.09472 10.92L9.6158 17.3633C9.64484 17.723 9.94486 18 10.3053 18H14.6998C15.0602 18 15.3603 17.723 15.3893 17.3632L15.9104 10.92C15.9242 10.7497 15.7898 10.604 15.619 10.604ZM10.8954 17.3128C10.8884 17.3132 10.8814 17.3134 10.8746 17.3134C10.7005 17.3134 10.5544 17.1779 10.5436 17.0018L10.217 11.7122C10.2058 11.5292 10.345 11.3717 10.528 11.3604C10.7103 11.3493 10.8685 11.4882 10.8798 11.6713L11.2062 16.9609C11.2176 17.144 11.0783 17.3014 10.8954 17.3128ZM12.8383 16.9814C12.8383 17.1647 12.6897 17.3133 12.5063 17.3133C12.3229 17.3133 12.1743 17.1647 12.1743 16.9814V11.6917C12.1743 11.5084 12.3229 11.3597 12.5063 11.3597C12.6896 11.3597 12.8383 11.5084 12.8383 11.6917V16.9814ZM14.7882 11.7113L14.4764 17.0009C14.4661 17.1773 14.3197 17.3133 14.1453 17.3133C14.1388 17.3133 14.1321 17.3132 14.1255 17.3128C13.9425 17.302 13.8028 17.1449 13.8136 16.9619L14.1253 11.6722C14.1361 11.4891 14.2927 11.3495 14.4762 11.3603C14.6593 11.3711 14.7989 11.5283 14.7882 11.7113Z" fill="#E56868"/>
<path d="M16.7678 9.57945L16.5498 8.92586C16.4923 8.75356 16.331 8.63733 16.1493 8.63733H8.8573C8.67569 8.63733 8.5143 8.75356 8.4569 8.92586L8.23887 9.57945C8.19682 9.70551 8.25154 9.83408 8.35367 9.89819C8.3953 9.92429 8.44456 9.93999 8.49869 9.93999H16.508C16.5621 9.93999 16.6115 9.92429 16.653 9.89811C16.7552 9.83399 16.8099 9.70542 16.7678 9.57945Z" fill="#E56868"/>
</svg>
