<svg width="12" height="12" viewBox="0 0 12 12" fill="none" xmlns="http://www.w3.org/2000/svg">
<g clip-path="url(#clip0)">
<path d="M9.4171 4.71412L11.5715 4.71412C11.8082 4.71404 12.0001 4.52211 12 4.28541C12 4.16402 11.9484 4.04835 11.8583 3.96709L7.57251 0.109936C7.41541 -0.0311176 7.17901 -0.0367678 7.01536 0.0966514L2.30104 3.95383C2.11785 4.1037 2.09083 4.3737 2.24069 4.55691C2.32188 4.65616 2.44325 4.71384 2.57147 4.71411L4.70705 4.71411C4.59691 8.09987 3.14962 10.2127 0.292721 11.165C0.117942 11.2235 9.29623e-05 11.3871 1.7614e-05 11.5713C-5.77273e-05 11.5944 0.00182482 11.6175 0.00559184 11.6403C0.0394177 11.8477 0.218515 11.9999 0.428601 11.9999C5.4755 11.9999 9.18311 8.96173 9.4171 4.71412Z" fill="white"/>
</g>
<defs>
<clipPath id="clip0">
<rect width="12" height="12" fill="white" transform="translate(12) rotate(90)"/>
</clipPath>
</defs>
</svg>
