<svg width="15" height="15" viewBox="0 0 15 15" fill="none" xmlns="http://www.w3.org/2000/svg">
<g clip-path="url(#clip0)">
<path d="M14.8679 2.98016L10.3187 7.50006L14.8679 12.0199C14.9502 11.8481 15 11.658 15 11.4551V3.54498C15 3.34204 14.9502 3.15205 14.8679 2.98016Z" fill="#273142"/>
<path d="M13.6815 2.22656H1.31823C1.11529 2.22656 0.925303 2.27646 0.753418 2.35869L6.56776 8.14375C7.08187 8.65786 7.91788 8.65786 8.43198 8.14375L14.2463 2.35869C14.0744 2.27646 13.8845 2.22656 13.6815 2.22656Z" fill="#273142"/>
<path d="M0.132129 2.98016C0.0498926 3.15205 0 3.34204 0 3.54498V11.4551C0 11.6581 0.0498926 11.8481 0.132129 12.0199L4.68132 7.50006L0.132129 2.98016Z" fill="#273142"/>
<path d="M9.69714 8.12146L9.0534 8.7652C8.19679 9.62181 6.80293 9.62181 5.94632 8.7652L5.30261 8.12146L0.753418 12.6414C0.925303 12.7236 1.11529 12.7735 1.31823 12.7735H13.6815C13.8845 12.7735 14.0744 12.7236 14.2463 12.6414L9.69714 8.12146Z" fill="#273142"/>
</g>
<defs>
<clipPath id="clip0">
<rect width="15" height="15" fill="white"/>
</clipPath>
</defs>
</svg>
