<svg width="38" height="38" viewBox="0 0 38 38" fill="none" xmlns="http://www.w3.org/2000/svg">
<circle cx="19" cy="19" r="19" fill="#72B9EE"/>
<g clip-path="url(#clip0)">
<path d="M26.3333 18.3333H19.6667V11.6667C19.6667 11.2985 19.3682 11 19 11C18.6318 11 18.3333 11.2985 18.3333 11.6667V18.3333H11.6667C11.2985 18.3333 11 18.6318 11 19C11 19.3682 11.2985 19.6667 11.6667 19.6667H18.3333V26.3333C18.3333 26.7015 18.6318 27 19 27C19.3682 27 19.6667 26.7015 19.6667 26.3333V19.6667H26.3334C26.7016 19.6667 27 19.3682 27 19C27 18.6318 26.7015 18.3333 26.3333 18.3333Z" fill="white"/>
</g>
<defs>
<clipPath id="clip0">
<rect width="16" height="16" fill="white" transform="translate(11 11)"/>
</clipPath>
</defs>
</svg>
