<svg width="51" height="51" viewBox="0 0 51 51" fill="none" xmlns="http://www.w3.org/2000/svg">
<circle cx="25.5" cy="25.5" r="25" fill="#FCFCFC" stroke="#F0F0F0"/>
<path d="M19.9073 19.2581L28.279 16.973L27.8357 16.0768C27.5456 15.4944 26.8382 15.2538 26.2557 15.5439L18.7612 19.2581H19.9073Z" fill="#69CA91"/>
<path d="M30.8777 17.039C30.774 17.039 30.6702 17.0531 30.5664 17.0814L28.5997 17.6191L22.5933 19.258H29.4109H32.3823L32.0144 17.9091C31.8729 17.3833 31.3965 17.039 30.8777 17.039Z" fill="#69CA91"/>
<path d="M33.6111 20.0836H33.3423H32.9768H32.6112H29.8214H19.5702H18.2261H17.0941H16.8842H16.1815C15.8089 20.0836 15.4764 20.2557 15.2594 20.5269C15.1604 20.6519 15.0849 20.7957 15.0424 20.9537C15.0165 21.0528 15 21.1565 15 21.2627V21.4042V22.7484V34.4003C15 35.0512 15.5282 35.5795 16.1791 35.5795H33.6088C34.2597 35.5795 34.7879 35.0512 34.7879 34.4003V31.1106H27.791C26.685 31.1106 25.7865 30.2121 25.7865 29.1061V28.0261V27.6605V27.295V26.4838C25.7865 25.9414 26.0035 25.4485 26.3549 25.0877C26.6661 24.767 27.0835 24.55 27.5505 24.4958C27.6283 24.4864 27.7085 24.4816 27.7887 24.4816H33.8069H34.1724H34.5379H34.7879V21.2627C34.7902 20.6118 34.262 20.0836 33.6111 20.0836Z" fill="#69CA91"/>
<path d="M35.615 25.6088C35.4971 25.5003 35.358 25.4178 35.2023 25.3636C35.082 25.3235 34.9547 25.2999 34.8203 25.2999H34.7896H34.766H34.4005H33.0823H27.7904C27.1395 25.2999 26.6113 25.8281 26.6113 26.479V27.0662V27.4317V27.7972V29.1037C26.6113 29.7546 27.1395 30.2828 27.7904 30.2828H34.7896H34.8203C34.9547 30.2828 35.082 30.2592 35.2023 30.2191C35.358 30.1673 35.4971 30.0824 35.615 29.9739C35.8508 29.7593 35.9994 29.448 35.9994 29.1037V26.479C35.9994 26.1347 35.8508 25.8234 35.615 25.6088ZM30.2524 28.026C30.2524 28.3514 29.9883 28.6156 29.6629 28.6156H29.2714C28.946 28.6156 28.6818 28.3514 28.6818 28.026V27.6345C28.6818 27.4459 28.7691 27.2784 28.9082 27.1723C29.0096 27.0945 29.1346 27.045 29.2714 27.045H29.3704H29.6629C29.9883 27.045 30.2524 27.3091 30.2524 27.6345V28.026Z" fill="#69CA91"/>
</svg>
