<svg width="51" height="28" viewBox="0 0 51 28" fill="none" xmlns="http://www.w3.org/2000/svg">
<g filter="url(#filter0_d)">
<rect x="5" y="4" width="41" height="18" rx="9" fill="#61ADE5"/>
</g>
<path d="M16.6387 15.3311C16.1895 15.8193 15.5807 16.0635 14.8125 16.0635C14.0443 16.0635 13.4339 15.8193 12.9814 15.3311C12.529 14.8428 12.3027 14.182 12.3027 13.3486C12.3027 12.5186 12.529 11.8577 12.9814 11.3662C13.4372 10.8747 14.0475 10.6289 14.8125 10.6289C15.5775 10.6289 16.1862 10.8747 16.6387 11.3662C17.0911 11.8545 17.3174 12.5153 17.3174 13.3486C17.3174 14.182 17.0911 14.8428 16.6387 15.3311ZM13.7578 14.7012C14.0117 15.0234 14.3633 15.1846 14.8125 15.1846C15.2617 15.1846 15.6117 15.0234 15.8623 14.7012C16.1162 14.3789 16.2432 13.9281 16.2432 13.3486C16.2432 12.7692 16.1162 12.3184 15.8623 11.9961C15.6117 11.6706 15.2617 11.5078 14.8125 11.5078C14.3633 11.5078 14.0117 11.6706 13.7578 11.9961C13.5039 12.3216 13.377 12.7725 13.377 13.3486C13.377 13.9248 13.5039 14.3757 13.7578 14.7012ZM18.167 16V10.6973H19.1777V11.5908H19.1973C19.526 10.9561 20.1006 10.6387 20.9209 10.6387C21.5068 10.6387 21.9674 10.8145 22.3027 11.166C22.6413 11.5143 22.8105 11.9928 22.8105 12.6016V16H21.751V12.8018C21.751 12.3981 21.6484 12.0889 21.4434 11.874C21.2383 11.6559 20.9421 11.5469 20.5547 11.5469C20.1543 11.5469 19.832 11.6755 19.5879 11.9326C19.347 12.1865 19.2266 12.5218 19.2266 12.9385V16H18.167ZM23.9141 16V8.63672H24.9736V16H23.9141ZM26.1455 16V10.6973H27.2051V16H26.1455ZM27.1172 9.76465C26.9967 9.88184 26.8503 9.94043 26.6777 9.94043C26.5052 9.94043 26.3587 9.88184 26.2383 9.76465C26.1178 9.64421 26.0576 9.49935 26.0576 9.33008C26.0576 9.15755 26.1178 9.0127 26.2383 8.89551C26.3587 8.77832 26.5052 8.71973 26.6777 8.71973C26.8503 8.71973 26.9967 8.77832 27.1172 8.89551C27.2376 9.0127 27.2979 9.15755 27.2979 9.33008C27.2979 9.49935 27.2376 9.64421 27.1172 9.76465ZM28.333 16V10.6973H29.3438V11.5908H29.3633C29.6921 10.9561 30.2666 10.6387 31.0869 10.6387C31.6729 10.6387 32.1335 10.8145 32.4688 11.166C32.8073 11.5143 32.9766 11.9928 32.9766 12.6016V16H31.917V12.8018C31.917 12.3981 31.8145 12.0889 31.6094 11.874C31.4043 11.6559 31.1081 11.5469 30.7207 11.5469C30.3203 11.5469 29.998 11.6755 29.7539 11.9326C29.513 12.1865 29.3926 12.5218 29.3926 12.9385V16H28.333ZM36.2432 11.4932C35.8623 11.4932 35.5449 11.6201 35.291 11.874C35.0404 12.1279 34.9004 12.4583 34.8711 12.8652H37.5615C37.5485 12.4518 37.4215 12.1198 37.1807 11.8691C36.9398 11.6185 36.6273 11.4932 36.2432 11.4932ZM37.5566 14.4473H38.5674C38.4925 14.9225 38.2435 15.3115 37.8203 15.6143C37.3971 15.9137 36.8877 16.0635 36.292 16.0635C35.5238 16.0635 34.915 15.8226 34.4658 15.3408C34.0199 14.8558 33.7969 14.1982 33.7969 13.3682C33.7969 12.5381 34.0199 11.874 34.4658 11.376C34.9118 10.8779 35.5059 10.6289 36.248 10.6289C36.9772 10.6289 37.555 10.8649 37.9814 11.3369C38.4079 11.8057 38.6211 12.4421 38.6211 13.2461V13.6172H34.8662V13.6807C34.8662 14.1396 34.998 14.5091 35.2617 14.7891C35.5254 15.0658 35.8753 15.2041 36.3115 15.2041C36.6208 15.2041 36.8877 15.1357 37.1123 14.999C37.3369 14.8623 37.485 14.6784 37.5566 14.4473Z" fill="white"/>
<defs>
<filter id="filter0_d" x="0" y="0" width="51" height="28" filterUnits="userSpaceOnUse" color-interpolation-filters="sRGB">
<feFlood flood-opacity="0" result="BackgroundImageFix"/>
<feColorMatrix in="SourceAlpha" type="matrix" values="0 0 0 0 0 0 0 0 0 0 0 0 0 0 0 0 0 0 127 0"/>
<feOffset dy="1"/>
<feGaussianBlur stdDeviation="2.5"/>
<feColorMatrix type="matrix" values="0 0 0 0 0.380392 0 0 0 0 0.678431 0 0 0 0 0.898039 0 0 0 0.2 0"/>
<feBlend mode="normal" in2="BackgroundImageFix" result="effect1_dropShadow"/>
<feBlend mode="normal" in="SourceGraphic" in2="effect1_dropShadow" result="shape"/>
</filter>
</defs>
</svg>
