<svg width="42" height="42" viewBox="0 0 42 42" fill="none" xmlns="http://www.w3.org/2000/svg">
<g filter="url(#filter0_d)">
<circle cx="21" cy="19" r="15" fill="white"/>
</g>
<path d="M20.9998 13C18.6808 13 16.7998 14.881 16.7998 17.2C16.7998 20.35 20.9998 25 20.9998 25C20.9998 25 25.1998 20.35 25.1998 17.2C25.1998 14.881 23.3188 13 20.9998 13ZM20.9998 18.7C20.1718 18.7 19.4998 18.028 19.4998 17.2C19.4998 16.372 20.1718 15.7 20.9998 15.7C21.8278 15.7 22.4998 16.372 22.4998 17.2C22.4998 18.028 21.8278 18.7 20.9998 18.7Z" fill="#61ADE5"/>
<defs>
<filter id="filter0_d" x="0" y="0" width="42" height="42" filterUnits="userSpaceOnUse" color-interpolation-filters="sRGB">
<feFlood flood-opacity="0" result="BackgroundImageFix"/>
<feColorMatrix in="SourceAlpha" type="matrix" values="0 0 0 0 0 0 0 0 0 0 0 0 0 0 0 0 0 0 127 0"/>
<feOffset dy="2"/>
<feGaussianBlur stdDeviation="3"/>
<feColorMatrix type="matrix" values="0 0 0 0 0 0 0 0 0 0 0 0 0 0 0 0 0 0 0.02 0"/>
<feBlend mode="normal" in2="BackgroundImageFix" result="effect1_dropShadow"/>
<feBlend mode="normal" in="SourceGraphic" in2="effect1_dropShadow" result="shape"/>
</filter>
</defs>
</svg>
