<svg width="42" height="42" viewBox="0 0 42 42" fill="none" xmlns="http://www.w3.org/2000/svg">
<g filter="url(#filter0_d)">
<circle cx="21" cy="19" r="15" fill="white"/>
</g>
<g clip-path="url(#clip0)">
<path d="M21.2838 13.4669L22.8102 17.0797L26.7181 17.4154C26.9891 17.4388 27.0993 17.7769 26.8936 17.955L23.9295 20.523L24.8177 24.3433C24.8793 24.6088 24.5917 24.8177 24.3588 24.6766L21.0005 22.6512L17.6421 24.6766C17.4087 24.817 17.1216 24.6082 17.1832 24.3433L18.0715 20.523L15.1067 17.9544C14.901 17.7763 15.0106 17.4382 15.2823 17.4147L19.1901 17.079L20.7165 13.4669C20.8225 13.2156 21.1779 13.2156 21.2838 13.4669Z" fill="#FFCC00"/>
</g>
<defs>
<filter id="filter0_d" x="0" y="0" width="42" height="42" filterUnits="userSpaceOnUse" color-interpolation-filters="sRGB">
<feFlood flood-opacity="0" result="BackgroundImageFix"/>
<feColorMatrix in="SourceAlpha" type="matrix" values="0 0 0 0 0 0 0 0 0 0 0 0 0 0 0 0 0 0 127 0"/>
<feOffset dy="2"/>
<feGaussianBlur stdDeviation="3"/>
<feColorMatrix type="matrix" values="0 0 0 0 0 0 0 0 0 0 0 0 0 0 0 0 0 0 0.02 0"/>
<feBlend mode="normal" in2="BackgroundImageFix" result="effect1_dropShadow"/>
<feBlend mode="normal" in="SourceGraphic" in2="effect1_dropShadow" result="shape"/>
</filter>
<clipPath id="clip0">
<rect width="12" height="12" fill="white" transform="translate(15 13)"/>
</clipPath>
</defs>
</svg>
