<svg width="12" height="12" viewBox="0 0 12 12" fill="none" xmlns="http://www.w3.org/2000/svg">
<g clip-path="url(#clip0)">
<path d="M9.4171 4.71415L11.5715 4.71415C11.8082 4.71407 12.0001 4.52214 12 4.28544C12 4.16405 11.9484 4.04838 11.8583 3.96712L7.57251 0.109966C7.41541 -0.0310871 7.17901 -0.0367372 7.01536 0.0966819L2.30104 3.95386C2.11785 4.10373 2.09083 4.37373 2.24069 4.55695C2.32188 4.65619 2.44325 4.71387 2.57147 4.71415L4.70705 4.71415C4.59691 8.0999 3.14962 10.2128 0.292721 11.1651C0.117942 11.2235 9.29623e-05 11.3871 1.7614e-05 11.5714C-5.77273e-05 11.5945 0.00182482 11.6176 0.00559184 11.6404C0.0394177 11.8477 0.218515 11.9999 0.428601 11.9999C5.4755 11.9999 9.18311 8.96176 9.4171 4.71415Z" fill="white"/>
</g>
<defs>
<clipPath id="clip0">
<rect width="12" height="12" fill="white" transform="translate(12) rotate(90)"/>
</clipPath>
</defs>
</svg>
