<svg width="42" height="42" viewBox="0 0 42 42" fill="none" xmlns="http://www.w3.org/2000/svg">
<g filter="url(#filter0_d)">
<circle cx="21" cy="19" r="15" fill="white"/>
</g>
<g clip-path="url(#clip0)">
<path d="M23.5248 16.3146C22.8405 16.4574 22.1075 16.542 21.3521 16.5621V18.6485H23.8248C23.802 17.8267 23.6995 17.0367 23.5248 16.3146Z" fill="#61ADE5"/>
<path d="M17.4721 18.6483C17.4953 17.7712 17.6051 16.9248 17.7931 16.1478C17.1772 15.9749 16.6136 15.7514 16.1249 15.4828C15.4555 16.4064 15.066 17.4967 15 18.6483H17.4721Z" fill="#61ADE5"/>
<path d="M17.4721 19.3516H15C15.066 20.5031 15.4555 21.5934 16.1249 22.5171C16.6136 22.2485 17.1772 22.0249 17.7931 21.8521C17.6051 21.0751 17.4953 20.2287 17.4721 19.3516Z" fill="#61ADE5"/>
<path d="M22.0111 13.4063C21.7961 13.2244 21.5753 13.1019 21.3516 13.0391V15.8587C22.042 15.8395 22.7099 15.7638 23.3326 15.6372C23.2183 15.288 23.0855 14.9599 22.9348 14.6585C22.6641 14.1171 22.3533 13.6958 22.0111 13.4063Z" fill="#61ADE5"/>
<path d="M17.9819 22.528C17.4672 22.6725 16.9941 22.8548 16.5786 23.0713C16.6344 23.1317 16.6912 23.1915 16.7497 23.25C17.4257 23.926 18.2343 24.421 19.1168 24.711C18.8696 24.4188 18.641 24.0659 18.4359 23.6559C18.2625 23.3089 18.1107 22.9307 17.9819 22.528Z" fill="#61ADE5"/>
<path d="M19.0653 14.6585C18.9146 14.9599 18.7818 15.288 18.6675 15.6372C19.2901 15.7638 19.9581 15.8395 20.6485 15.8587V13.0391C20.4247 13.1019 20.204 13.2244 19.989 13.4063C19.6468 13.6958 19.336 14.1171 19.0653 14.6585Z" fill="#61ADE5"/>
<path d="M24.528 19.3516C24.5049 20.2287 24.3951 21.0751 24.207 21.8521C24.823 22.0249 25.3865 22.2485 25.8753 22.5171C26.5446 21.5934 26.9342 20.5032 27.0002 19.3516H24.528Z" fill="#61ADE5"/>
<path d="M24.0178 15.4721C24.5325 15.3275 25.0055 15.1452 25.421 14.9287C25.3652 14.8683 25.3084 14.8085 25.2499 14.75C24.574 14.0741 23.7654 13.5791 22.8828 13.2891C23.13 13.5813 23.3587 13.9342 23.5637 14.3442C23.7372 14.6911 23.8889 15.0693 24.0178 15.4721Z" fill="#61ADE5"/>
<path d="M22.9353 23.3415C23.086 23.0401 23.2188 22.712 23.3331 22.3628C22.7104 22.2362 22.0425 22.1605 21.3521 22.1413V24.9609C21.5758 24.8981 21.7966 24.7756 22.0116 24.5937C22.3538 24.3042 22.6646 23.8829 22.9353 23.3415Z" fill="#61ADE5"/>
<path d="M24.207 16.1479C24.3951 16.9248 24.5049 17.7713 24.528 18.6484H27.0002C26.9342 17.4968 26.5446 16.4065 25.8753 15.4828C25.3865 15.7515 24.823 15.975 24.207 16.1479Z" fill="#61ADE5"/>
<path d="M21.3521 19.3516V21.4379C22.1075 21.458 22.8405 21.5426 23.5248 21.6855C23.6995 20.9634 23.802 20.1734 23.8248 19.3516H21.3521Z" fill="#61ADE5"/>
<path d="M20.6486 18.6485V16.5621C19.8932 16.542 19.1601 16.4574 18.4758 16.3146C18.3011 17.0367 18.1986 17.8267 18.1758 18.6485H20.6486Z" fill="#61ADE5"/>
<path d="M17.9819 15.4721C18.1107 15.0693 18.2625 14.6911 18.4359 14.3442C18.641 13.9342 18.8696 13.5812 19.1168 13.2891C18.2343 13.5791 17.4257 14.0741 16.7497 14.75C16.6912 14.8085 16.6344 14.8683 16.5786 14.9288C16.9941 15.1452 17.4672 15.3275 17.9819 15.4721Z" fill="#61ADE5"/>
<path d="M24.0177 22.528C23.8889 22.9307 23.7372 23.3089 23.5637 23.6559C23.3587 24.0659 23.13 24.4188 22.8828 24.711C23.7653 24.421 24.574 23.926 25.2499 23.25C25.3084 23.1915 25.3652 23.1318 25.421 23.0713C25.0055 22.8548 24.5325 22.6725 24.0177 22.528Z" fill="#61ADE5"/>
<path d="M20.6486 19.3516H18.1758C18.1986 20.1734 18.3011 20.9634 18.4758 21.6855C19.1601 21.5426 19.8932 21.458 20.6486 21.4379V19.3516Z" fill="#61ADE5"/>
<path d="M19.989 24.5937C20.204 24.7756 20.4248 24.8981 20.6485 24.961V22.1413C19.9581 22.1605 19.2901 22.2362 18.6675 22.3628C18.7818 22.7121 18.9146 23.0401 19.0653 23.3415C19.336 23.8829 19.6468 24.3042 19.989 24.5937Z" fill="#61ADE5"/>
</g>
<defs>
<filter id="filter0_d" x="0" y="0" width="42" height="42" filterUnits="userSpaceOnUse" color-interpolation-filters="sRGB">
<feFlood flood-opacity="0" result="BackgroundImageFix"/>
<feColorMatrix in="SourceAlpha" type="matrix" values="0 0 0 0 0 0 0 0 0 0 0 0 0 0 0 0 0 0 127 0"/>
<feOffset dy="2"/>
<feGaussianBlur stdDeviation="3"/>
<feColorMatrix type="matrix" values="0 0 0 0 0 0 0 0 0 0 0 0 0 0 0 0 0 0 0.02 0"/>
<feBlend mode="normal" in2="BackgroundImageFix" result="effect1_dropShadow"/>
<feBlend mode="normal" in="SourceGraphic" in2="effect1_dropShadow" result="shape"/>
</filter>
<clipPath id="clip0">
<rect width="12" height="12" fill="white" transform="translate(15 13)"/>
</clipPath>
</defs>
</svg>
