<svg width="70" height="70" viewBox="0 0 70 70" fill="none" xmlns="http://www.w3.org/2000/svg">
<path d="M43.0664 8.84844V0.853125C49.4094 2.34687 55.2105 5.57913 59.8184 10.187C64.4263 14.7949 67.6586 20.596 69.1523 26.9391H61.1406C59.8303 22.6773 57.4972 18.8008 54.345 15.6475C51.1927 12.4943 47.3169 10.1601 43.0555 8.84844H43.0664ZM8.98516 26.9336H0.984375C2.47812 20.5906 5.71038 14.7895 10.3183 10.1816C14.9262 5.57367 20.7273 2.3414 27.0703 0.847656V8.85938C22.8095 10.1705 18.9341 12.5039 15.7819 15.6561C12.6296 18.8083 10.2963 22.6838 8.98516 26.9445V26.9336ZM27.0703 61.0148V69.0102C20.728 67.5168 14.9273 64.2854 10.3195 59.6785C5.71168 55.0717 2.47902 49.2717 0.984375 42.9297H8.98516C10.2963 47.1905 12.6296 51.0659 15.7819 54.2181C18.9341 57.3704 22.8095 59.7037 27.0703 61.0148ZM61.1516 42.9297H69.1469C67.6531 49.2727 64.4209 55.0738 59.813 59.6817C55.2051 64.2896 49.404 67.5219 43.0609 69.0156V61.0148C47.3227 59.7045 51.1992 57.3715 54.3525 54.2192C57.5057 51.0669 59.8399 47.1911 61.1516 42.9297Z" fill="#61ADE5"/>
</svg>
